<svg xmlns="http://www.w3.org/2000/svg" viewBox="0 0 56 84" width="56" height="84">
  <!-- Maya: Girl with brown braided hair, brown outfit, holding crystal/gem and globe -->
  <!-- Boots -->
  <rect x="10" y="74" width="12" height="8" rx="2" fill="#5D4037"/>
  <rect x="34" y="74" width="12" height="8" rx="2" fill="#5D4037"/>
  <!-- Pants -->
  <rect x="12" y="56" width="10" height="20" rx="2" fill="#6D4C41"/>
  <rect x="34" y="56" width="10" height="20" rx="2" fill="#6D4C41"/>
  <!-- Earth-tone brown jacket -->
  <rect x="8" y="32" width="40" height="26" rx="4" fill="#8D6E63"/>
  <!-- Jacket pockets -->
  <rect x="12" y="44" width="10" height="8" rx="1" fill="#795548"/>
  <rect x="34" y="44" width="10" height="8" rx="1" fill="#795548"/>
  <!-- Jacket zipper -->
  <line x1="28" y1="34" x2="28" y2="58" stroke="#A1887F" stroke-width="1.5"/>
  <!-- T-shirt visible at collar -->
  <rect x="18" y="32" width="20" height="4" rx="2" fill="#FFCC80"/>
  <!-- Arms -->
  <rect x="2" y="36" width="8" height="18" rx="3" fill="#8D6E63"/>
  <rect x="46" y="36" width="8" height="18" rx="3" fill="#8D6E63"/>
  <!-- Hands -->
  <circle cx="6" cy="56" r="4" fill="#A0785A"/>
  <circle cx="50" cy="56" r="4" fill="#A0785A"/>
  <!-- Left hand: globe -->
  <circle cx="4" cy="50" r="6" fill="#4CAF50"/>
  <path d="M0,50 Q4,47 8,50" fill="none" stroke="#81C784" stroke-width="1"/>
  <path d="M2,46 Q4,50 2,54" fill="none" stroke="#2196F3" stroke-width="0.8"/>
  <circle cx="5" cy="48" r="2" fill="#2196F3" opacity="0.4"/>
  <ellipse cx="4" cy="50" rx="6" ry="2" fill="none" stroke="#81C784" stroke-width="0.5"/>
  <!-- Right hand: crystal/gem -->
  <polygon points="50,44 46,50 48,54 52,54 54,50" fill="#CE93D8" opacity="0.8"/>
  <polygon points="50,44 48,48 50,46 52,48" fill="#E1BEE7" opacity="0.6"/>
  <polygon points="48,50 50,46 52,50" fill="#AB47BC" opacity="0.4"/>
  <!-- Crystal sparkle -->
  <line x1="50" y1="42" x2="50" y2="40" stroke="#E1BEE7" stroke-width="0.8" opacity="0.6"/>
  <line x1="48" y1="43" x2="46" y2="41" stroke="#CE93D8" stroke-width="0.6" opacity="0.5"/>
  <line x1="52" y1="43" x2="54" y2="41" stroke="#CE93D8" stroke-width="0.6" opacity="0.5"/>
  <circle cx="50" cy="40" r="1" fill="#E1BEE7" opacity="0.5"/>
  <!-- Neck -->
  <rect x="22" y="26" width="12" height="8" rx="3" fill="#A0785A"/>
  <!-- Head -->
  <ellipse cx="28" cy="16" rx="14" ry="15" fill="#A0785A"/>
  <!-- Brown braided hair -->
  <path d="M14,14 Q16,4 28,2 Q40,4 42,14" fill="#6D4C41"/>
  <path d="M14,14 Q12,8 16,4" fill="none" stroke="#6D4C41" stroke-width="3"/>
  <path d="M42,14 Q44,8 40,4" fill="none" stroke="#6D4C41" stroke-width="3"/>
  <!-- Single braid going down back/side -->
  <path d="M38,14 L40,20 L42,26 L43,32 L42,38" fill="none" stroke="#6D4C41" stroke-width="4"/>
  <!-- Braid pattern -->
  <circle cx="40" cy="20" r="1" fill="#795548"/>
  <circle cx="42" cy="25" r="1" fill="#795548"/>
  <circle cx="43" cy="30" r="1" fill="#795548"/>
  <circle cx="42" cy="35" r="1" fill="#795548"/>
  <!-- Hair tie at end of braid -->
  <circle cx="42" cy="38" r="2" fill="#FF9800"/>
  <!-- Wide-eyed wonder expression -->
  <ellipse cx="22" cy="16" rx="4" ry="5" fill="white"/>
  <ellipse cx="34" cy="16" rx="4" ry="5" fill="white"/>
  <circle cx="23" cy="16" r="2.8" fill="#4E342E"/>
  <circle cx="35" cy="16" r="2.8" fill="#4E342E"/>
  <circle cx="22" cy="15" r="1.2" fill="white"/>
  <circle cx="34" cy="15" r="1.2" fill="white"/>
  <circle cx="24" cy="17" r="0.6" fill="white"/>
  <circle cx="36" cy="17" r="0.6" fill="white"/>
  <!-- Eyebrows (raised in wonder) -->
  <path d="M18,10 Q22,8 26,10" fill="none" stroke="#5D4037" stroke-width="1.2"/>
  <path d="M30,10 Q34,8 38,10" fill="none" stroke="#5D4037" stroke-width="1.2"/>
  <!-- Nose -->
  <ellipse cx="28" cy="20" rx="1.8" ry="1.3" fill="#8B6B4A"/>
  <!-- Smile -->
  <path d="M23,24 Q28,28 33,24" fill="none" stroke="#5D4037" stroke-width="1.2"/>
  <!-- Ears -->
  <ellipse cx="14" cy="18" rx="2.5" ry="3" fill="#A0785A"/>
  <ellipse cx="42" cy="18" rx="2.5" ry="3" fill="#A0785A"/>
</svg>
