<svg xmlns="http://www.w3.org/2000/svg" viewBox="0 0 56 84" width="56" height="84">
  <!-- Maya: 9yo girl, braided hair, earth-tone jacket, globe + rock sample, wide-eyed wonder -->
  <!-- Boots -->
  <rect x="10" y="74" width="12" height="8" rx="2" fill="#5D4037"/>
  <rect x="34" y="74" width="12" height="8" rx="2" fill="#5D4037"/>
  <!-- Pants -->
  <rect x="12" y="56" width="10" height="20" rx="2" fill="#6D4C41"/>
  <rect x="34" y="56" width="10" height="20" rx="2" fill="#6D4C41"/>
  <!-- Earth-tone jacket -->
  <rect x="8" y="32" width="40" height="26" rx="4" fill="#8D6E63"/>
  <!-- Jacket pockets -->
  <rect x="12" y="44" width="10" height="8" rx="1" fill="#795548"/>
  <rect x="34" y="44" width="10" height="8" rx="1" fill="#795548"/>
  <!-- Jacket zipper -->
  <line x1="28" y1="34" x2="28" y2="58" stroke="#A1887F" stroke-width="1.5"/>
  <!-- T-shirt visible at collar -->
  <rect x="18" y="32" width="20" height="4" rx="2" fill="#FFCC80"/>
  <!-- Arms -->
  <rect x="2" y="36" width="8" height="18" rx="3" fill="#8D6E63"/>
  <rect x="46" y="36" width="8" height="18" rx="3" fill="#8D6E63"/>
  <!-- Hands -->
  <circle cx="6" cy="56" r="4" fill="#A0785A"/>
  <circle cx="50" cy="56" r="4" fill="#A0785A"/>
  <!-- Left hand: globe -->
  <circle cx="4" cy="50" r="6" fill="#4CAF50"/>
  <path d="M0,50 Q4,47 8,50" fill="none" stroke="#81C784" stroke-width="1"/>
  <path d="M2,46 Q4,50 2,54" fill="none" stroke="#2196F3" stroke-width="0.8"/>
  <circle cx="5" cy="48" r="2" fill="#2196F3" opacity="0.4"/>
  <!-- Right hand: rock sample -->
  <polygon points="46,48 50,46 54,49 52,54 48,54" fill="#9E9E9E"/>
  <polygon points="47,49 50,47 52,50" fill="#BDBDBD" opacity="0.5"/>
  <circle cx="50" cy="51" r="1" fill="#FF9800" opacity="0.5"/>
  <!-- Neck -->
  <rect x="22" y="26" width="12" height="8" rx="3" fill="#A0785A"/>
  <!-- Head -->
  <ellipse cx="28" cy="16" rx="14" ry="15" fill="#A0785A"/>
  <!-- Braided hair -->
  <path d="M14,14 Q16,4 28,2 Q40,4 42,14" fill="#3E2723"/>
  <path d="M14,14 Q12,8 16,4" fill="none" stroke="#3E2723" stroke-width="3"/>
  <path d="M42,14 Q44,8 40,4" fill="none" stroke="#3E2723" stroke-width="3"/>
  <!-- Braids (two braids going down) -->
  <path d="M16,16 L14,22 L12,28 L10,34" fill="none" stroke="#3E2723" stroke-width="3"/>
  <path d="M40,16 L42,22 L44,28 L46,34" fill="none" stroke="#3E2723" stroke-width="3"/>
  <!-- Braid pattern -->
  <circle cx="14" cy="20" r="1" fill="#5D4037"/>
  <circle cx="13" cy="25" r="1" fill="#5D4037"/>
  <circle cx="11" cy="30" r="1" fill="#5D4037"/>
  <circle cx="42" cy="20" r="1" fill="#5D4037"/>
  <circle cx="43" cy="25" r="1" fill="#5D4037"/>
  <circle cx="45" cy="30" r="1" fill="#5D4037"/>
  <!-- Hair ties -->
  <circle cx="10" cy="34" r="2" fill="#FF9800"/>
  <circle cx="46" cy="34" r="2" fill="#FF9800"/>
  <!-- Wide-eyed wonder expression -->
  <ellipse cx="22" cy="16" rx="4" ry="5" fill="white"/>
  <ellipse cx="34" cy="16" rx="4" ry="5" fill="white"/>
  <circle cx="23" cy="16" r="2.8" fill="#4E342E"/>
  <circle cx="35" cy="16" r="2.8" fill="#4E342E"/>
  <circle cx="22" cy="15" r="1.2" fill="white"/>
  <circle cx="34" cy="15" r="1.2" fill="white"/>
  <circle cx="24" cy="17" r="0.6" fill="white"/>
  <circle cx="36" cy="17" r="0.6" fill="white"/>
  <!-- Eyebrows (raised in wonder) -->
  <path d="M18,10 Q22,8 26,10" fill="none" stroke="#3E2723" stroke-width="1.2"/>
  <path d="M30,10 Q34,8 38,10" fill="none" stroke="#3E2723" stroke-width="1.2"/>
  <!-- Nose -->
  <ellipse cx="28" cy="20" rx="1.8" ry="1.3" fill="#8B6B4A"/>
  <!-- Wonder "O" mouth -->
  <ellipse cx="28" cy="24" rx="3" ry="2.5" fill="#C62828" opacity="0.8"/>
  <ellipse cx="28" cy="24" rx="2" ry="1.5" fill="#4E342E" opacity="0.3"/>
  <!-- Ears -->
  <ellipse cx="14" cy="18" rx="2.5" ry="3" fill="#A0785A"/>
  <ellipse cx="42" cy="18" rx="2.5" ry="3" fill="#A0785A"/>
</svg>
