<svg xmlns="http://www.w3.org/2000/svg" viewBox="0 0 64 96" width="64" height="96">
  <!-- Nadia: 10yo girl, curly brown hair, green overalls, yellow top, holding tablet and plant -->
  <!-- Hiking boots -->
  <rect x="12" y="84" width="16" height="10" rx="3" fill="#5D4037"/>
  <rect x="36" y="84" width="16" height="10" rx="3" fill="#5D4037"/>
  <rect x="12" y="84" width="16" height="4" rx="2" fill="#795548"/>
  <rect x="36" y="84" width="16" height="4" rx="2" fill="#795548"/>
  <!-- Legs (overalls) -->
  <rect x="16" y="62" width="12" height="24" rx="2" fill="#388E3C"/>
  <rect x="36" y="62" width="12" height="24" rx="2" fill="#388E3C"/>
  <!-- Green overalls body -->
  <rect x="14" y="38" width="36" height="28" rx="4" fill="#43A047"/>
  <!-- Overall straps -->
  <rect x="20" y="34" width="6" height="12" rx="1" fill="#388E3C"/>
  <rect x="38" y="34" width="6" height="12" rx="1" fill="#388E3C"/>
  <!-- Overall buckles -->
  <rect x="21" y="36" width="4" height="3" rx="1" fill="#FFD54F"/>
  <rect x="39" y="36" width="4" height="3" rx="1" fill="#FFD54F"/>
  <!-- Leaf embroidery on overalls -->
  <path d="M28,50 Q32,46 36,50 Q32,54 28,50Z" fill="#66BB6A" opacity="0.6"/>
  <line x1="32" y1="47" x2="32" y2="53" stroke="#2E7D32" stroke-width="0.5"/>
  <!-- Yellow T-shirt underneath (more visible) -->
  <rect x="16" y="34" width="32" height="10" rx="3" fill="#FFEB3B"/>
  <rect x="20" y="34" width="6" height="10" rx="1" fill="#388E3C"/>
  <rect x="38" y="34" width="6" height="10" rx="1" fill="#388E3C"/>
  <!-- Arms (yellow sleeves) -->
  <rect x="4" y="40" width="12" height="10" rx="4" fill="#FFEB3B"/>
  <rect x="48" y="40" width="12" height="10" rx="4" fill="#FFEB3B"/>
  <!-- Lower arms (skin) -->
  <rect x="4" y="48" width="12" height="12" rx="4" fill="#8D6E63"/>
  <rect x="48" y="48" width="12" height="12" rx="4" fill="#8D6E63"/>
  <!-- Left hand holding tablet -->
  <rect x="0" y="58" width="14" height="10" rx="2" fill="#37474F"/>
  <rect x="1" y="59" width="12" height="8" rx="1" fill="#4FC3F7"/>
  <!-- Tablet screen content -->
  <rect x="2" y="60" width="4" height="1" fill="#81D4FA" opacity="0.6"/>
  <rect x="2" y="62" width="6" height="1" fill="#81D4FA" opacity="0.5"/>
  <rect x="2" y="64" width="3" height="1" fill="#81D4FA" opacity="0.4"/>
  <!-- Right hand holding small plant -->
  <circle cx="56" cy="58" r="5" fill="#8D6E63"/>
  <rect x="54" y="50" width="4" height="10" rx="1" fill="#795548"/>
  <!-- Plant pot -->
  <path d="M51,52 L53,48 L59,48 L61,52Z" fill="#A1887F"/>
  <!-- Plant leaves -->
  <ellipse cx="56" cy="44" rx="4" ry="5" fill="#66BB6A"/>
  <ellipse cx="52" cy="46" rx="3" ry="4" fill="#81C784" transform="rotate(-20 52 46)"/>
  <ellipse cx="60" cy="46" rx="3" ry="4" fill="#4CAF50" transform="rotate(20 60 46)"/>
  <ellipse cx="54" cy="42" rx="2.5" ry="3.5" fill="#A5D6A7" transform="rotate(-30 54 42)"/>
  <!-- Neck -->
  <rect x="26" y="28" width="12" height="8" rx="3" fill="#8D6E63"/>
  <!-- Head -->
  <ellipse cx="32" cy="18" rx="15" ry="16" fill="#8D6E63"/>
  <!-- Curly brown hair -->
  <circle cx="32" cy="8" r="12" fill="#6D4C41"/>
  <circle cx="22" cy="10" r="6" fill="#6D4C41"/>
  <circle cx="42" cy="10" r="6" fill="#6D4C41"/>
  <circle cx="18" cy="16" r="4" fill="#6D4C41"/>
  <circle cx="46" cy="16" r="4" fill="#6D4C41"/>
  <!-- Extra curls (brown tones) -->
  <circle cx="26" cy="5" r="4" fill="#795548"/>
  <circle cx="38" cy="5" r="4" fill="#795548"/>
  <circle cx="20" cy="8" r="3" fill="#8D6E63"/>
  <circle cx="44" cy="8" r="3" fill="#8D6E63"/>
  <!-- Hair tie -->
  <circle cx="44" cy="4" r="3" fill="#43A047"/>
  <!-- Eyes (thoughtful) -->
  <ellipse cx="26" cy="18" rx="3.5" ry="4" fill="white"/>
  <ellipse cx="38" cy="18" rx="3.5" ry="4" fill="white"/>
  <circle cx="26" cy="19" r="2.2" fill="#4E342E"/>
  <circle cx="38" cy="19" r="2.2" fill="#4E342E"/>
  <circle cx="27" cy="18" r="0.8" fill="white"/>
  <circle cx="39" cy="18" r="0.8" fill="white"/>
  <!-- Eyebrows -->
  <path d="M22,14 Q26,13 30,14.5" fill="none" stroke="#5D4037" stroke-width="1.2"/>
  <path d="M34,14.5 Q38,13 42,14" fill="none" stroke="#5D4037" stroke-width="1.2"/>
  <!-- Nose -->
  <ellipse cx="32" cy="22" rx="2" ry="1.5" fill="#7B5B3A"/>
  <!-- Thoughtful smile -->
  <path d="M27,26 Q32,29 37,26" fill="none" stroke="#5D4037" stroke-width="1.2"/>
  <!-- Ears -->
  <ellipse cx="17" cy="20" rx="2.5" ry="3.5" fill="#8D6E63"/>
  <ellipse cx="47" cy="20" rx="2.5" ry="3.5" fill="#8D6E63"/>
</svg>
