<svg xmlns="http://www.w3.org/2000/svg" viewBox="0 0 64 96" width="64" height="96">
  <!-- Rex: Quirky inventor, spiky hair, mismatched lab coat with patches, crooked goggles, sparking gadget -->
  <!-- Boots (mismatched) -->
  <rect x="14" y="84" width="14" height="10" rx="3" fill="#5D4037"/>
  <rect x="36" y="84" width="14" height="10" rx="3" fill="#37474F"/>
  <!-- Pants -->
  <rect x="16" y="66" width="12" height="20" rx="2" fill="#616161"/>
  <rect x="36" y="66" width="12" height="20" rx="2" fill="#616161"/>
  <!-- Mismatched lab coat -->
  <rect x="10" y="36" width="44" height="34" rx="4" fill="#E0E0E0"/>
  <!-- Patches on coat -->
  <rect x="14" y="44" width="10" height="8" rx="1" fill="#7E57C2" opacity="0.6"/>
  <rect x="40" y="52" width="8" height="10" rx="1" fill="#FF5722" opacity="0.5"/>
  <rect x="24" y="58" width="8" height="6" rx="1" fill="#4CAF50" opacity="0.4"/>
  <!-- Stitch marks -->
  <line x1="14" y1="44" x2="24" y2="44" stroke="#616161" stroke-width="0.5" stroke-dasharray="2,2"/>
  <line x1="40" y1="52" x2="48" y2="52" stroke="#616161" stroke-width="0.5" stroke-dasharray="2,2"/>
  <!-- Arms -->
  <rect x="2" y="40" width="10" height="22" rx="4" fill="#E0E0E0"/>
  <rect x="52" y="40" width="10" height="22" rx="4" fill="#E0E0E0"/>
  <!-- Hands -->
  <circle cx="7" cy="64" r="5" fill="#E8C4A0"/>
  <circle cx="57" cy="64" r="5" fill="#E8C4A0"/>
  <!-- Right hand: overcomplicated sparking gadget -->
  <rect x="52" y="54" width="12" height="8" rx="2" fill="#546E7A"/>
  <rect x="54" y="52" width="4" height="4" rx="1" fill="#78909C"/>
  <rect x="60" y="50" width="3" height="6" rx="1" fill="#90A4AE"/>
  <!-- Sparks -->
  <line x1="62" y1="48" x2="64" y2="44" stroke="#FFEE58" stroke-width="1.5"/>
  <line x1="60" y1="48" x2="58" y2="44" stroke="#FDD835" stroke-width="1"/>
  <line x1="64" y1="50" x2="66" y2="46" stroke="#FFEE58" stroke-width="1"/>
  <circle cx="63" cy="45" r="2" fill="#FFEE58" opacity="0.6"/>
  <!-- Neck -->
  <rect x="26" y="30" width="12" height="8" rx="3" fill="#E8C4A0"/>
  <!-- Head -->
  <ellipse cx="32" cy="18" rx="15" ry="16" fill="#E8C4A0"/>
  <!-- Spiky hair (chaotic) -->
  <polygon points="20,8 16,0 22,6" fill="#FF5722"/>
  <polygon points="28,4 26,-2 32,2" fill="#FF5722"/>
  <polygon points="36,3 38,-3 40,4" fill="#E64A19"/>
  <polygon points="44,6 48,-1 46,8" fill="#FF5722"/>
  <polygon points="24,6 18,2 22,10" fill="#E64A19"/>
  <polygon points="40,5 46,0 44,8" fill="#FF5722"/>
  <path d="M17,16 Q20,4 32,2 Q44,4 47,16" fill="#FF5722"/>
  <!-- Crooked goggles (one higher than other) -->
  <ellipse cx="25" cy="16" rx="7" ry="6" fill="none" stroke="#546E7A" stroke-width="2"/>
  <ellipse cx="40" cy="18" rx="7" ry="6" fill="none" stroke="#546E7A" stroke-width="2"/>
  <ellipse cx="25" cy="16" rx="5" ry="4.5" fill="#E8F5E9" opacity="0.5"/>
  <ellipse cx="40" cy="18" rx="5" ry="4.5" fill="#E8F5E9" opacity="0.5"/>
  <line x1="32" y1="17" x2="33" y2="18" stroke="#546E7A" stroke-width="2"/>
  <line x1="18" y1="16" x2="14" y2="14" stroke="#546E7A" stroke-width="1.5"/>
  <line x1="47" y1="18" x2="50" y2="16" stroke="#546E7A" stroke-width="1.5"/>
  <!-- Eyes behind goggles (mischievous) -->
  <circle cx="25" cy="17" r="2" fill="#4E342E"/>
  <circle cx="40" cy="19" r="2" fill="#4E342E"/>
  <circle cx="26" cy="16" r="0.8" fill="white"/>
  <circle cx="41" cy="18" r="0.8" fill="white"/>
  <!-- Mischievous eyebrows -->
  <path d="M20,12 Q25,10 30,12" fill="none" stroke="#BF360C" stroke-width="1.5"/>
  <path d="M35,14 Q40,11 45,14" fill="none" stroke="#BF360C" stroke-width="1.5"/>
  <!-- Nose -->
  <ellipse cx="32" cy="22" rx="2.5" ry="2" fill="#D4A880"/>
  <!-- Mischievous grin -->
  <path d="M24,26 Q32,32 40,26" fill="none" stroke="#5D4037" stroke-width="1.5"/>
  <path d="M26,26 Q32,30 38,26" fill="white" opacity="0.8"/>
  <!-- Ears -->
  <ellipse cx="17" cy="20" rx="3" ry="4" fill="#E8C4A0"/>
  <ellipse cx="47" cy="20" rx="3" ry="4" fill="#E8C4A0"/>
</svg>
